(0 "aeroharness demo channel 2D (generated by tools/make_demo_msh.py)")
(2 2)
(0 "nodes:")
(10 (0 1 ff 0 2))
(10 (1 1 ff 1 2)(
0 0
0.01 0
0.02 0
0.03 0
0.04 0
0.05 0
0.06 0
0.07 0
0.08 0
0.09 0
0.1 0
0.11 0
0.12 0
0.13 0
0.14 0
0.15 0
0.16 0
0.17 0
0.18 0
0.19 0
0.2 0
0.21 0
0.22 0
0.23 0
0.24 0
0.25 0
0.26 0
0.27 0
0.28 0
0.29 0
0.3 0
0.31 0
0.32 0
0.33 0
0.34 0
0.35 0
0.36 0
0.37 0
0.38 0
0.39 0
0.4 0
0.41 0
0.42 0
0.43 0
0.44 0
0.45 0
0.46 0
0.47 0
0.48 0
0.49 0
0.5 0
0 0.0025
0.01 0.0025
0.02 0.0025
0.03 0.0025
0.04 0.0025
0.05 0.0025
0.06 0.0025
0.07 0.0025
0.08 0.0025
0.09 0.0025
0.1 0.0025
0.11 0.0025
0.12 0.0025
0.13 0.0025
0.14 0.0025
0.15 0.0025
0.16 0.0025
0.17 0.0025
0.18 0.0025
0.19 0.0025
0.2 0.0025
0.21 0.0025
0.22 0.0025
0.23 0.0025
0.24 0.0025
0.25 0.0025
0.26 0.0025
0.27 0.0025
0.28 0.0025
0.29 0.0025
0.3 0.0025
0.31 0.0025
0.32 0.0025
0.33 0.0025
0.34 0.0025
0.35 0.0025
0.36 0.0025
0.37 0.0025
0.38 0.0025
0.39 0.0025
0.4 0.0025
0.41 0.0025
0.42 0.0025
0.43 0.0025
0.44 0.0025
0.45 0.0025
0.46 0.0025
0.47 0.0025
0.48 0.0025
0.49 0.0025
0.5 0.0025
0 0.005
0.01 0.005
0.02 0.005
0.03 0.005
0.04 0.005
0.05 0.005
0.06 0.005
0.07 0.005
0.08 0.005
0.09 0.005
0.1 0.005
0.11 0.005
0.12 0.005
0.13 0.005
0.14 0.005
0.15 0.005
0.16 0.005
0.17 0.005
0.18 0.005
0.19 0.005
0.2 0.005
0.21 0.005
0.22 0.005
0.23 0.005
0.24 0.005
0.25 0.005
0.26 0.005
0.27 0.005
0.28 0.005
0.29 0.005
0.3 0.005
0.31 0.005
0.32 0.005
0.33 0.005
0.34 0.005
0.35 0.005
0.36 0.005
0.37 0.005
0.38 0.005
0.39 0.005
0.4 0.005
0.41 0.005
0.42 0.005
0.43 0.005
0.44 0.005
0.45 0.005
0.46 0.005
0.47 0.005
0.48 0.005
0.49 0.005
0.5 0.005
0 0.0075
0.01 0.0075
0.02 0.0075
0.03 0.0075
0.04 0.0075
0.05 0.0075
0.06 0.0075
0.07 0.0075
0.08 0.0075
0.09 0.0075
0.1 0.0075
0.11 0.0075
0.12 0.0075
0.13 0.0075
0.14 0.0075
0.15 0.0075
0.16 0.0075
0.17 0.0075
0.18 0.0075
0.19 0.0075
0.2 0.0075
0.21 0.0075
0.22 0.0075
0.23 0.0075
0.24 0.0075
0.25 0.0075
0.26 0.0075
0.27 0.0075
0.28 0.0075
0.29 0.0075
0.3 0.0075
0.31 0.0075
0.32 0.0075
0.33 0.0075
0.34 0.0075
0.35 0.0075
0.36 0.0075
0.37 0.0075
0.38 0.0075
0.39 0.0075
0.4 0.0075
0.41 0.0075
0.42 0.0075
0.43 0.0075
0.44 0.0075
0.45 0.0075
0.46 0.0075
0.47 0.0075
0.48 0.0075
0.49 0.0075
0.5 0.0075
0 0.01
0.01 0.01
0.02 0.01
0.03 0.01
0.04 0.01
0.05 0.01
0.06 0.01
0.07 0.01
0.08 0.01
0.09 0.01
0.1 0.01
0.11 0.01
0.12 0.01
0.13 0.01
0.14 0.01
0.15 0.01
0.16 0.01
0.17 0.01
0.18 0.01
0.19 0.01
0.2 0.01
0.21 0.01
0.22 0.01
0.23 0.01
0.24 0.01
0.25 0.01
0.26 0.01
0.27 0.01
0.28 0.01
0.29 0.01
0.3 0.01
0.31 0.01
0.32 0.01
0.33 0.01
0.34 0.01
0.35 0.01
0.36 0.01
0.37 0.01
0.38 0.01
0.39 0.01
0.4 0.01
0.41 0.01
0.42 0.01
0.43 0.01
0.44 0.01
0.45 0.01
0.46 0.01
0.47 0.01
0.48 0.01
0.49 0.01
0.5 0.01
))
(0 "cells:")
(12 (0 1 c8 0))
(12 (3e8 1 c8 1 3))
(0 "faces:")
(13 (0 1 1c6 0))
(13 (2 1 15a 2 2)(
2 35 1 2
3 36 2 3
4 37 3 4
5 38 4 5
6 39 5 6
7 3a 6 7
8 3b 7 8
9 3c 8 9
a 3d 9 a
b 3e a b
c 3f b c
d 40 c d
e 41 d e
f 42 e f
10 43 f 10
11 44 10 11
12 45 11 12
13 46 12 13
14 47 13 14
15 48 14 15
16 49 15 16
17 4a 16 17
18 4b 17 18
19 4c 18 19
1a 4d 19 1a
1b 4e 1a 1b
1c 4f 1b 1c
1d 50 1c 1d
1e 51 1d 1e
1f 52 1e 1f
20 53 1f 20
21 54 20 21
22 55 21 22
23 56 22 23
24 57 23 24
25 58 24 25
26 59 25 26
27 5a 26 27
28 5b 27 28
29 5c 28 29
2a 5d 29 2a
2b 5e 2a 2b
2c 5f 2b 2c
2d 60 2c 2d
2e 61 2d 2e
2f 62 2e 2f
30 63 2f 30
31 64 30 31
32 65 31 32
35 68 33 34
36 69 34 35
37 6a 35 36
38 6b 36 37
39 6c 37 38
3a 6d 38 39
3b 6e 39 3a
3c 6f 3a 3b
3d 70 3b 3c
3e 71 3c 3d
3f 72 3d 3e
40 73 3e 3f
41 74 3f 40
42 75 40 41
43 76 41 42
44 77 42 43
45 78 43 44
46 79 44 45
47 7a 45 46
48 7b 46 47
49 7c 47 48
4a 7d 48 49
4b 7e 49 4a
4c 7f 4a 4b
4d 80 4b 4c
4e 81 4c 4d
4f 82 4d 4e
50 83 4e 4f
51 84 4f 50
52 85 50 51
53 86 51 52
54 87 52 53
55 88 53 54
56 89 54 55
57 8a 55 56
58 8b 56 57
59 8c 57 58
5a 8d 58 59
5b 8e 59 5a
5c 8f 5a 5b
5d 90 5b 5c
5e 91 5c 5d
5f 92 5d 5e
60 93 5e 5f
61 94 5f 60
62 95 60 61
63 96 61 62
64 97 62 63
65 98 63 64
68 9b 65 66
69 9c 66 67
6a 9d 67 68
6b 9e 68 69
6c 9f 69 6a
6d a0 6a 6b
6e a1 6b 6c
6f a2 6c 6d
70 a3 6d 6e
71 a4 6e 6f
72 a5 6f 70
73 a6 70 71
74 a7 71 72
75 a8 72 73
76 a9 73 74
77 aa 74 75
78 ab 75 76
79 ac 76 77
7a ad 77 78
7b ae 78 79
7c af 79 7a
7d b0 7a 7b
7e b1 7b 7c
7f b2 7c 7d
80 b3 7d 7e
81 b4 7e 7f
82 b5 7f 80
83 b6 80 81
84 b7 81 82
85 b8 82 83
86 b9 83 84
87 ba 84 85
88 bb 85 86
89 bc 86 87
8a bd 87 88
8b be 88 89
8c bf 89 8a
8d c0 8a 8b
8e c1 8b 8c
8f c2 8c 8d
90 c3 8d 8e
91 c4 8e 8f
92 c5 8f 90
93 c6 90 91
94 c7 91 92
95 c8 92 93
96 c9 93 94
97 ca 94 95
98 cb 95 96
9b ce 97 98
9c cf 98 99
9d d0 99 9a
9e d1 9a 9b
9f d2 9b 9c
a0 d3 9c 9d
a1 d4 9d 9e
a2 d5 9e 9f
a3 d6 9f a0
a4 d7 a0 a1
a5 d8 a1 a2
a6 d9 a2 a3
a7 da a3 a4
a8 db a4 a5
a9 dc a5 a6
aa dd a6 a7
ab de a7 a8
ac df a8 a9
ad e0 a9 aa
ae e1 aa ab
af e2 ab ac
b0 e3 ac ad
b1 e4 ad ae
b2 e5 ae af
b3 e6 af b0
b4 e7 b0 b1
b5 e8 b1 b2
b6 e9 b2 b3
b7 ea b3 b4
b8 eb b4 b5
b9 ec b5 b6
ba ed b6 b7
bb ee b7 b8
bc ef b8 b9
bd f0 b9 ba
be f1 ba bb
bf f2 bb bc
c0 f3 bc bd
c1 f4 bd be
c2 f5 be bf
c3 f6 bf c0
c4 f7 c0 c1
c5 f8 c1 c2
c6 f9 c2 c3
c7 fa c3 c4
c8 fb c4 c5
c9 fc c5 c6
ca fd c6 c7
cb fe c7 c8
34 35 33 1
35 36 34 2
36 37 35 3
37 38 36 4
38 39 37 5
39 3a 38 6
3a 3b 39 7
3b 3c 3a 8
3c 3d 3b 9
3d 3e 3c a
3e 3f 3d b
3f 40 3e c
40 41 3f d
41 42 40 e
42 43 41 f
43 44 42 10
44 45 43 11
45 46 44 12
46 47 45 13
47 48 46 14
48 49 47 15
49 4a 48 16
4a 4b 49 17
4b 4c 4a 18
4c 4d 4b 19
4d 4e 4c 1a
4e 4f 4d 1b
4f 50 4e 1c
50 51 4f 1d
51 52 50 1e
52 53 51 1f
53 54 52 20
54 55 53 21
55 56 54 22
56 57 55 23
57 58 56 24
58 59 57 25
59 5a 58 26
5a 5b 59 27
5b 5c 5a 28
5c 5d 5b 29
5d 5e 5c 2a
5e 5f 5d 2b
5f 60 5e 2c
60 61 5f 2d
61 62 60 2e
62 63 61 2f
63 64 62 30
64 65 63 31
65 66 64 32
67 68 65 33
68 69 66 34
69 6a 67 35
6a 6b 68 36
6b 6c 69 37
6c 6d 6a 38
6d 6e 6b 39
6e 6f 6c 3a
6f 70 6d 3b
70 71 6e 3c
71 72 6f 3d
72 73 70 3e
73 74 71 3f
74 75 72 40
75 76 73 41
76 77 74 42
77 78 75 43
78 79 76 44
79 7a 77 45
7a 7b 78 46
7b 7c 79 47
7c 7d 7a 48
7d 7e 7b 49
7e 7f 7c 4a
7f 80 7d 4b
80 81 7e 4c
81 82 7f 4d
82 83 80 4e
83 84 81 4f
84 85 82 50
85 86 83 51
86 87 84 52
87 88 85 53
88 89 86 54
89 8a 87 55
8a 8b 88 56
8b 8c 89 57
8c 8d 8a 58
8d 8e 8b 59
8e 8f 8c 5a
8f 90 8d 5b
90 91 8e 5c
91 92 8f 5d
92 93 90 5e
93 94 91 5f
94 95 92 60
95 96 93 61
96 97 94 62
97 98 95 63
98 99 96 64
9a 9b 97 65
9b 9c 98 66
9c 9d 99 67
9d 9e 9a 68
9e 9f 9b 69
9f a0 9c 6a
a0 a1 9d 6b
a1 a2 9e 6c
a2 a3 9f 6d
a3 a4 a0 6e
a4 a5 a1 6f
a5 a6 a2 70
a6 a7 a3 71
a7 a8 a4 72
a8 a9 a5 73
a9 aa a6 74
aa ab a7 75
ab ac a8 76
ac ad a9 77
ad ae aa 78
ae af ab 79
af b0 ac 7a
b0 b1 ad 7b
b1 b2 ae 7c
b2 b3 af 7d
b3 b4 b0 7e
b4 b5 b1 7f
b5 b6 b2 80
b6 b7 b3 81
b7 b8 b4 82
b8 b9 b5 83
b9 ba b6 84
ba bb b7 85
bb bc b8 86
bc bd b9 87
bd be ba 88
be bf bb 89
bf c0 bc 8a
c0 c1 bd 8b
c1 c2 be 8c
c2 c3 bf 8d
c3 c4 c0 8e
c4 c5 c1 8f
c5 c6 c2 90
c6 c7 c3 91
c7 c8 c4 92
c8 c9 c5 93
c9 ca c6 94
ca cb c7 95
cb cc c8 96
))
(13 (3 15b 1be 3 2)(
1 2 1 0
2 3 2 0
3 4 3 0
4 5 4 0
5 6 5 0
6 7 6 0
7 8 7 0
8 9 8 0
9 a 9 0
a b a 0
b c b 0
c d c 0
d e d 0
e f e 0
f 10 f 0
10 11 10 0
11 12 11 0
12 13 12 0
13 14 13 0
14 15 14 0
15 16 15 0
16 17 16 0
17 18 17 0
18 19 18 0
19 1a 19 0
1a 1b 1a 0
1b 1c 1b 0
1c 1d 1c 0
1d 1e 1d 0
1e 1f 1e 0
1f 20 1f 0
20 21 20 0
21 22 21 0
22 23 22 0
23 24 23 0
24 25 24 0
25 26 25 0
26 27 26 0
27 28 27 0
28 29 28 0
29 2a 29 0
2a 2b 2a 0
2b 2c 2b 0
2c 2d 2c 0
2d 2e 2d 0
2e 2f 2e 0
2f 30 2f 0
30 31 30 0
31 32 31 0
32 33 32 0
ce cd 97 0
cf ce 98 0
d0 cf 99 0
d1 d0 9a 0
d2 d1 9b 0
d3 d2 9c 0
d4 d3 9d 0
d5 d4 9e 0
d6 d5 9f 0
d7 d6 a0 0
d8 d7 a1 0
d9 d8 a2 0
da d9 a3 0
db da a4 0
dc db a5 0
dd dc a6 0
de dd a7 0
df de a8 0
e0 df a9 0
e1 e0 aa 0
e2 e1 ab 0
e3 e2 ac 0
e4 e3 ad 0
e5 e4 ae 0
e6 e5 af 0
e7 e6 b0 0
e8 e7 b1 0
e9 e8 b2 0
ea e9 b3 0
eb ea b4 0
ec eb b5 0
ed ec b6 0
ee ed b7 0
ef ee b8 0
f0 ef b9 0
f1 f0 ba 0
f2 f1 bb 0
f3 f2 bc 0
f4 f3 bd 0
f5 f4 be 0
f6 f5 bf 0
f7 f6 c0 0
f8 f7 c1 0
f9 f8 c2 0
fa f9 c3 0
fb fa c4 0
fc fb c5 0
fd fc c6 0
fe fd c7 0
ff fe c8 0
))
(13 (4 1bf 1c2 18 2)(
34 1 1 0
67 34 33 0
9a 67 65 0
cd 9a 97 0
))
(13 (5 1c3 1c6 5 2)(
33 66 32 0
66 99 64 0
99 cc 96 0
cc ff c8 0
))
(0 "zone names:")
(45 (2 interior interior-2)())
(45 (3 wall wall-3)())
(45 (4 velocity-inlet inlet)())
(45 (5 pressure-outlet outlet)())
(45 (1000 fluid fluid-1000)())
