(0 "aeroharness demo channel 2D (generated by tools/make_demo_msh.py)")
(2 2)
(0 "nodes:")
(10 (0 1 37 0 2))
(10 (1 1 37 1 2)(
0 0
0.01 0
0.02 0
0.03 0
0.04 0
0.05 0
0.06 0
0.07 0
0.08 0
0.09 0
0.1 0
0 0.0025
0.01 0.0025
0.02 0.0025
0.03 0.0025
0.04 0.0025
0.05 0.0025
0.06 0.0025
0.07 0.0025
0.08 0.0025
0.09 0.0025
0.1 0.0025
0 0.005
0.01 0.005
0.02 0.005
0.03 0.005
0.04 0.005
0.05 0.005
0.06 0.005
0.07 0.005
0.08 0.005
0.09 0.005
0.1 0.005
0 0.0075
0.01 0.0075
0.02 0.0075
0.03 0.0075
0.04 0.0075
0.05 0.0075
0.06 0.0075
0.07 0.0075
0.08 0.0075
0.09 0.0075
0.1 0.0075
0 0.01
0.01 0.01
0.02 0.01
0.03 0.01
0.04 0.01
0.05 0.01
0.06 0.01
0.07 0.01
0.08 0.01
0.09 0.01
0.1 0.01
))
(0 "cells:")
(12 (0 1 28 0))
(12 (3e8 1 28 1 3))
(0 "faces:")
(13 (0 1 5e 0))
(13 (2 1 42 2 2)(
2 d 1 2
3 e 2 3
4 f 3 4
5 10 4 5
6 11 5 6
7 12 6 7
8 13 7 8
9 14 8 9
a 15 9 a
d 18 b c
e 19 c d
f 1a d e
10 1b e f
11 1c f 10
12 1d 10 11
13 1e 11 12
14 1f 12 13
15 20 13 14
18 23 15 16
19 24 16 17
1a 25 17 18
1b 26 18 19
1c 27 19 1a
1d 28 1a 1b
1e 29 1b 1c
1f 2a 1c 1d
20 2b 1d 1e
23 2e 1f 20
24 2f 20 21
25 30 21 22
26 31 22 23
27 32 23 24
28 33 24 25
29 34 25 26
2a 35 26 27
2b 36 27 28
c d b 1
d e c 2
e f d 3
f 10 e 4
10 11 f 5
11 12 10 6
12 13 11 7
13 14 12 8
14 15 13 9
15 16 14 a
17 18 15 b
18 19 16 c
19 1a 17 d
1a 1b 18 e
1b 1c 19 f
1c 1d 1a 10
1d 1e 1b 11
1e 1f 1c 12
1f 20 1d 13
20 21 1e 14
22 23 1f 15
23 24 20 16
24 25 21 17
25 26 22 18
26 27 23 19
27 28 24 1a
28 29 25 1b
29 2a 26 1c
2a 2b 27 1d
2b 2c 28 1e
))
(13 (3 43 56 3 2)(
1 2 1 0
2 3 2 0
3 4 3 0
4 5 4 0
5 6 5 0
6 7 6 0
7 8 7 0
8 9 8 0
9 a 9 0
a b a 0
2e 2d 1f 0
2f 2e 20 0
30 2f 21 0
31 30 22 0
32 31 23 0
33 32 24 0
34 33 25 0
35 34 26 0
36 35 27 0
37 36 28 0
))
(13 (4 57 5a 18 2)(
c 1 1 0
17 c b 0
22 17 15 0
2d 22 1f 0
))
(13 (5 5b 5e 5 2)(
b 16 a 0
16 21 14 0
21 2c 1e 0
2c 37 28 0
))
(0 "zone names:")
(45 (2 interior interior-2)())
(45 (3 wall wall-3)())
(45 (4 velocity-inlet inlet)())
(45 (5 pressure-outlet outlet)())
(45 (1000 fluid fluid-1000)())
